#!OML:ASF F:\VICON\USERDATA\INSTALL\rory3\rory3.ASF
:FULLY-SPECIFIED
:DEGREES
91
root 1.119331979230581 18.0772511620133 42.84502755658143 2.4355931972690565 -3.457764971885452 -0.9760209105347755
lfemur 0.22428464950801796 2.48509263438409 -19.70344478320192
ltibia 60.961748927189845
lfoot 28.371269234397076 -15.145330804793367
ltoes 7.198014045265264
rfemur -25.35727469942249 0.8660238858334688 29.559557754766445
rtibia 77.65268534647066
rfoot -5.0095576155158685 -2.596373091072865
rtoes 21.215612113370856
lowerback nan -0.7768409153619383 -0.2355513680656136
upperback 0.21314142430055616 1.48875587448801 -0.04045335752341073
thorax -7.349361156718377 0.005941002954737984 1.9357991699925543
lowerneck -15.708483477029073 -3.4692280269336138 -2.5479543827167137
upperneck 5.354175124338801 -5.409126725177544 5.875897293541932
head 4.939976409008191 -1.5028751758795975 1.346129863791878
lclavicle 7.898270081239164e-16 1.8853872600888645e-14
lhumerus -49.689172736906094 -1.9051564984620804 87.11314825111053
lradius 112.87207868865488
lwrist 34.18915016012322
lhand -28.926739458869044 3.156927268121616
lfingers nan
lthumb -1.9539789768046127 32.729845298401486
rclavicle 9.097263739348113e-16 2.1333686287742384e-14
rhumerus -53.653530527361674 1.452480454670095 -94.31218666624696
rradius 97.30176092150735
rwrist -17.227258939439565
rhand -21.910134388932782 nan
rfingers nan
rthumb 4.01061723413777 12.382279424261542
92
root 1.0777173614460944 18.03822199677017 43.02794577427876 2.3869996422015998 -3.604314939192249 -1.3269205147737837
lfemur -1.8625506664469214 3.8717367504559044 -17.98003005611989
ltibia 64.33037504161744
lfoot 26.78380335409277 -14.280072018580068
ltoes 8.31832172451023
rfemur -24.41048214786968 1.949266923189915 30.018296669263666
rtibia 79.53889177303478
rfoot -6.840434552914424 -5.712660498989074
rtoes 21.49482173165776
lowerback nan -0.6777191177235079 -0.23391637455415126
upperback 0.22845670609514845 1.6296343021463784 0.12471233060130182
thorax -7.711940184769337 0.09716065069288393 2.0014485877121952
lowerneck -15.918382154646679 -3.5631017687328734 -2.5198178981658548
upperneck 5.381831327122697 -5.425357869642058 5.674829463916615
head 4.998376859032534 -1.536437911678108 1.281817177467349
lclavicle -4.052184470369449e-14 1.5358622484123416e-14
lhumerus -49.883513825530265 -1.874126720431157 87.30738440732459
lradius 111.28695773574901
lwrist 33.88368388519833
lhand -28.567962738054582 4.981996259504651
lfingers nan
lthumb -1.5982477780125837 34.55770245360083
rclavicle -4.0194371226623543e-14 1.7463545179992204e-14
rhumerus -51.9812092028586 2.3243202894153114 -95.07351362229808
rradius 96.94579022063019
rwrist -15.361659297128991
rhand -24.071173752661714 nan
rfingers nan
rthumb 1.9471283978501432 13.517571856271855
93
root 1.038915174633349 18.003223978959767 43.11468295431703 2.451697608346735 -3.776749102939066 -1.9838565695878168
lfemur -3.9892547607554754 5.282071411288287 -15.85862604965137
ltibia 67.45055069360222
lfoot 24.353291862207783 -13.644989043549547
ltoes 8.342431546762736
rfemur -23.3610704413133 2.9532306877704544 31.019219406935168
rtibia 80.98776255304074
rfoot -9.005635487623378 -7.844647180430495
rtoes 20.069468441081305
lowerback nan -0.5488277143614896 0.11121768326544679
upperback 0.28740306939734206 1.8363258312868562 0.32855000467572726
thorax -7.772676826296201 0.21192741673305748 1.9919509335246717
lowerneck -16.36104438402919 -3.6501518618523563 -2.426135161265185
upperneck 5.462801943540264 -5.445347395275863 5.430349868875906
head 5.113183751822634 -1.5726433854811859 1.199001896855631
lclavicle 7.734685775137743e-15 1.7039343732380904e-14
lhumerus -50.091249349261105 -1.9476646412238088 87.52681595230334
lradius 109.79443367423245
lwrist 33.79154032458449
lhand -27.557115544487765 6.829790281184114
lfingers nan
lthumb -0.6023858477834765 36.388810487074394
rclavicle 7.808550790885931e-15 1.9350566258430107e-14
rhumerus -50.267689937111605 3.0330444518935895 -95.4351132506246
rradius 96.98361186699164
rwrist -15.933528662788664
rhand -22.70286305992765 nan
rfingers nan
rthumb 3.3406139330804123 12.555394472287915
94
root 1.003400211826079 17.98411974667912 42.837318751200826 2.8035289461821122 -3.8149523711335824 -2.9962117478780703
lfemur -6.3543500554714285 6.5075389079737835 -13.266287500825513
ltibia 70.32365540881344
lfoot 21.677598674378086 -13.073615862440157
ltoes 8.075953248785396
rfemur -22.291725954266003 4.083595264502264 32.36878126682311
rtibia 81.92106949239165
rfoot -11.266695234137627 -9.457774471314316
rtoes 20.955434069552403
lowerback nan -0.48387376467508736 0.8813132325220012
upperback 0.3563978825175317 2.0383005619501944 0.5857779249756132
thorax -7.442276862403773 0.2936432180054927 1.8777850516219268
lowerneck -16.843100786319784 -3.6837876665377607 -2.318684331287181
upperneck 5.53008496350922 -5.421428312382251 5.255550280796395
head 5.224862265476836 -1.5832064171474751 1.1329317805810941
lclavicle -3.841718666094769e-14 1.1372807361437575e-14
lhumerus -50.328755245731095 -2.0613367117083135 87.82643814805047
lradius 108.37047201611587
lwrist 33.87487949278399
lhand -33.96342173743223 11.196786273437027
lfingers nan
lthumb -6.765022666905317 40.748138635537316
rclavicle -3.803728430886978e-14 1.3711968079075094e-14
rhumerus -48.571877569099144 3.806409432182784 -95.90440460765947
rradius 97.28188635987121
rwrist -15.384464640206353
rhand -22.73066173923546 nan
rfingers nan
rthumb 3.368415650679495 11.796337239811354
95
root 0.9806234113309213 17.984331229197792 42.52449491485274 3.1228020793463553 -3.4379316487834912 -3.544610606250967
lfemur -9.130032516589743 7.193467183264023 -11.3898111912059
ltibia 72.98376850793433
lfoot 19.133039476106553 -12.64137380565917
ltoes 6.916646066482244
rfemur -21.434420790420983 5.053566519269153 33.018761631651714
rtibia 82.5951695176108
rfoot -13.399123353692493 -10.490627289255801
rtoes 23.84490185230328
lowerback nan -0.5415637921025825 1.2136819786714124
upperback 0.3961136037407632 2.040328540502422 0.7684290658114593
thorax -7.049664733795134 0.27510064561947567 1.8613233238642444
lowerneck -17.350270880862737 -3.7053688803752185 -2.2594055960439965
upperneck 5.5524297715136175 -5.385451609635609 5.16024919869957
head 5.327538225707212 -1.5889296171210754 1.0914369602187977
lclavicle 1.793616377899896e-15 4.15282027138911e-15
lhumerus -50.56220838928397 -2.0762842186281407 88.14199661799579
lradius 107.06698367955599
lwrist 33.985418914932445
lhand -31.880423241456548 7.013529667185656
lfingers nan
lthumb -4.819992141009635 36.72958501407731
rclavicle 1.825503475711777e-15 6.6904273544139835e-15
rhumerus -46.954020841261894 4.738176891800388 -96.22666241945794
rradius 97.76389016498132
rwrist -15.13215531067159
rhand -22.672823324875292 nan
rfingers nan
rthumb 3.4909712504247636 11.819899285444539
96
root 0.9720355254846295 17.986452039997285 42.152204908753305 3.2026640093963983 -2.677401699960466 -3.4387246152867736
lfemur -12.196889102428083 7.3875811557776085 -10.604006769430889
ltibia 75.16867374750443
lfoot 16.689172405582347 -12.366107907371884
ltoes 6.520139081841364
rfemur -20.687823858882748 4.935888252135444 33.13230485714196
rtibia 82.85871293957811
rfoot -14.371130508281917 -12.797945611685352
rtoes 19.62927245560312
lowerback nan -0.6892404157525006 1.0502813290934134
upperback 0.40339554246222453 1.8600190673119412 0.8222685018742402
thorax -6.674236702773879 0.16463765982471296 1.930807275970374
lowerneck -17.688219558283613 -3.794806435564673 -2.238761698348881
upperneck 5.4714740451911705 -5.430649350898364 5.081051275925041
head 5.372663023264667 -1.6391471405601012 1.0538806487472832
lclavicle 2.0929401109053046e-14 3.3031696852198235e-14
lhumerus -51.012327613081354 -2.1452329446641167 88.32723939743114
lradius 105.98658683923834
lwrist 33.99834394715832
lhand -26.66158177749638 7.2403964926842725
lfingers nan
lthumb 0.19720272278846118 36.969654829453546
rclavicle 2.1084935595366898e-14 3.5751873922086994e-14
rhumerus -45.42998129291126 5.693107585982527 -96.47594373838203
rradius 98.08985831497185
rwrist -14.899037569477077
rhand -22.6224840063646 nan
rfingers nan
rthumb 3.5700726263689537 11.856638693547469
97
root 0.9656932444106693 17.986739703013633 42.26236590148858 3.1782806345238344 -1.9099814546485807 -3.4142869419155795
lfemur -15.247321425596384 7.495526501126477 -9.795117909846859
ltibia 77.03060127922181
lfoot 14.784890543796626 -11.481761574918066
ltoes 11.26262675553799
rfemur -19.762990026403 4.531634048778016 33.43931408110419
rtibia 82.84671564103066
rfoot -15.132711468446514 -15.201285621089253
rtoes 14.905019164374798
lowerback nan -0.8964468766543733 1.0437085411048828
upperback 0.32821263913292 1.6586639617408674 0.8717784839686207
thorax -6.75520404346408 0.04355910732612511 1.9363866363369349
lowerneck -17.560147070724206 -3.9074136371804937 -2.225070283263189
upperneck 5.044887922013141 -5.528975222643417 5.114040096499222
head 5.228801570653543 -1.7098942946310771 1.0428885070174672
lclavicle 2.018840669390219e-14 3.962278420483203e-15
lhumerus -51.79004798948017 -2.258665016030524 88.4544859201312
lradius 105.10488887742804
lwrist 33.74184302920315
lhand -28.510083079219683 4.603074525034814
lfingers nan
lthumb -1.5494834039117305 34.33908277762148
rclavicle 1.9994451186220246e-14 6.760232195834161e-15
rhumerus -43.95127834310214 6.6613503832963135 -96.75909653324709
rradius 98.31333402646443
rwrist -14.60373856122159
rhand -22.88895479878318 nan
rfingers nan
rthumb 3.3363480254366626 12.138622738191307
98
root 0.8882482904902073 17.98295164691786 42.18813189972231 3.1981477523931625 -2.2854138701333895 -4.372344860789099
lfemur -17.344138461528434 9.293495653772977 -7.084689544939396
ltibia 78.98186987290529
lfoot 12.67072245292503 -12.032563131092656
ltoes 13.396831966820258
rfemur -18.413213722649658 5.622526305380315 35.12596451762727
rtibia 82.50356753919664
rfoot -15.95483453825202 -16.564978087123215
rtoes 13.702691992331738
lowerback nan -0.8088228211896212 1.3227137668476585
upperback 0.28861675661136765 1.8703319834535024 1.1890499636482628
thorax -7.305405736920742 0.14562442888802457 1.9575368167615104
lowerneck -17.506368772221972 -3.965824837862981 -2.166821155053658
upperneck 4.774986023828788 -5.597664007808449 5.2713799424891254
head 5.1351010806425545 -1.7624196234976195 1.052445332328698
lclavicle -1.3334086724410117e-14 3.9971624437842155e-15
lhumerus -52.51101424779976 -2.4386726897430187 88.48010193024568
lradius 104.37136109116335
lwrist 33.3456422601134
lhand -29.303141277373303 3.5754215907554334
lfingers nan
lthumb -2.3722773397330243 33.20865924919206
rclavicle -1.3305298326922532e-14 6.829604315397115e-15
rhumerus -42.66172567775056 7.553441708319788 -97.04798708428048
rradius 98.70944764808304
rwrist -14.259376630301018
rhand -23.074552487954293 nan
rfingers nan
rthumb 3.1999206434775385 12.836833958468956
